/* XPM */
static char *a2dbb3629ed24d18a995fa20e40d26f16PRjLUdaVl5uqxfw[] = {
/* columns rows colors chars-per-pixel */
"28 28 7 1 ",
"  c None",
". c black",
"X c gray25",
"o c #A85050",
"O c #D06040",
"+ c gray72",
"@ c #F8F8F8",
/* pixels */
"          ........          ",
"          ........          ",
"      ....OOOOOOOO....      ",
"      ....OOOOOOOO....      ",
"    ..OOOOOOOOOOOOOOOO..    ",
"    ..OOOOOOOOOOOOOOOO..    ",
"  ..OOOOOOOOOOOOOOOOOOOO..  ",
"  ..OOOOOOOOOOOOOOOOOOOO..  ",
"  ..ooOOOOOOOOOOOOOOOOOO..  ",
"  ..ooOOOOOOOOOOOOOOOOOO..  ",
"..++ooOOOOOOooOOOOOOOOoooo..",
"..++ooOOOOOOooOOOOOOOOoooo..",
"..@@..OOOOXXOOOOXXXXoooooo..",
"..@@..OOOOXXOOOOXXXXoooooo..",
"..OO..OOOOXX..XX++ooooooXX..",
"..OO..OOOOXX..XX++ooooooXX..",
"..XXOOOOOO@@..@@@@ooooXX++..",
"..XXOOOOOO@@..@@@@ooooXX++..",
"  ..XXXXOOOOOOooooXXXX++..  ",
"  ..XXXXOOOOOOooooXXXX++..  ",
"  ..@@++XXXXXXXXXX++++++..  ",
"  ..@@++XXXXXXXXXX++++++..  ",
"    ..@@@@@@++++++++++..    ",
"    ..@@@@@@++++++++++..    ",
"      ....++++++++....      ",
"      ....++++++++....      ",
"          ........          ",
"          ........          "
};
