/* XPM */
static char *_58f998968964c98b27fe3b75cc02670prlIXA04NpK7PSQB[] = {
/* columns rows colors chars-per-pixel */
"32 32 184 2 ",
"   c None",
".  c #404750",
"X  c #414750",
"o  c #414751",
"O  c #424851",
"+  c #434851",
"@  c #434951",
"#  c #424852",
"$  c #434952",
"%  c #434953",
"&  c #444A52",
"*  c #444A53",
"=  c #454B54",
"-  c #464C55",
";  c #474D56",
":  c #474E57",
">  c #494F58",
",  c #4A5059",
"<  c #4A515A",
"1  c #4B515A",
"2  c #4C525A",
"3  c #4C525B",
"4  c #4C525C",
"5  c #4C535C",
"6  c #505760",
"7  c #535861",
"8  c #545A62",
"9  c #565D66",
"0  c #5A5F67",
"q  c #5A6068",
"w  c #59616B",
"e  c #5B626B",
"r  c #5C626A",
"t  c #5F646B",
"y  c #5B626C",
"u  c #5D656E",
"i  c #61666D",
"p  c #62676F",
"a  c #676C73",
"s  c #626A74",
"d  c #6C7178",
"f  c #69727C",
"g  c #6C747E",
"h  c #70757C",
"j  c #71757C",
"k  c #71767D",
"l  c #72777E",
"z  c #6D7680",
"x  c #757F88",
"c  c #768089",
"v  c #79848D",
"b  c #7A848E",
"n  c #7D8791",
"m  c #85888E",
"M  c #85898F",
"N  c #828C96",
"B  c #838D97",
"V  c #898D93",
"C  c #88939D",
"Z  c #8A959F",
"A  c #909499",
"S  c #95989D",
"D  c #95989E",
"F  c #95999E",
"G  c #8E9AA4",
"H  c #909BA5",
"J  c #909CA6",
"K  c #919DA7",
"L  c #9A9DA2",
"P  c #9A9EA2",
"I  c #9A9EA3",
"U  c #93A0AA",
"Y  c #99A6B0",
"T  c #A8ABAF",
"R  c #A2AFB9",
"E  c #B0BEC9",
"W  c #BEC0C3",
"Q  c #B6C0C9",
"!  c #B6C5D0",
"~  c #B7C5D0",
"^  c #B8C6D1",
"/  c #BCCBD6",
"(  c #BECDD7",
")  c #CCCED1",
"_  c #CECFD1",
"`  c #CED0D2",
"'  c #C0D0DB",
"]  c #C2D2DD",
"[  c #C4D4DF",
"{  c #C9D1D8",
"}  c #DCDDDF",
"|  c #C5D5E0",
" . c #C5D6E1",
".. c #C6D6E1",
"X. c #C6D6E2",
"o. c #C6D7E2",
"O. c #C7D7E2",
"+. c #C8D7E2",
"@. c #C8D8E2",
"#. c #C8D8E3",
"$. c #C9D8E3",
"%. c #C9D9E3",
"&. c #CAD9E3",
"*. c #C8D8E4",
"=. c #C8D9E4",
"-. c #C9D9E4",
";. c #CAD9E4",
":. c #CADAE4",
">. c #CBDAE4",
",. c #CCDAE4",
"<. c #CCDBE5",
"1. c #CDDBE5",
"2. c #CEDCE6",
"3. c #CFDCE6",
"4. c #CFDDE7",
"5. c #D0DEE7",
"6. c #D1DEE7",
"7. c #DDDEE0",
"8. c #D1DEE8",
"9. c #D2DFE8",
"0. c #D3DFE8",
"q. c #D4E1E9",
"w. c #D5E1E9",
"e. c #D6E2EA",
"r. c #D7E2EA",
"t. c #D7E3EA",
"y. c #D7E3EB",
"u. c #D8E3EB",
"i. c #DBE6EE",
"p. c #DDE7ED",
"a. c #DDE7EE",
"s. c #DEE8EE",
"d. c #DFE8EE",
"f. c #DFE8EF",
"g. c #E0E1E2",
"h. c #E4E5E6",
"j. c #E1E6E9",
"k. c #E6E7E8",
"l. c #E0E9EF",
"z. c #E8E9EA",
"x. c #ECECED",
"c. c #EDEDEE",
"v. c #E0E9F0",
"b. c #E2EAF0",
"n. c #E3EBF0",
"m. c #E4EBF1",
"M. c #E5ECF2",
"N. c #E5EDF2",
"B. c #E7EEF3",
"V. c #E8EFF3",
"C. c #E9EFF3",
"Z. c #E9EFF4",
"A. c #EAF0F5",
"S. c #EBF1F5",
"D. c #ECF1F5",
"F. c #ECF2F6",
"G. c #EFF3F7",
"H. c #EFF4F7",
"J. c #F2F2F3",
"K. c #F5F5F6",
"L. c #F5F6F6",
"P. c #F6F6F7",
"I. c #F0F5F8",
"U. c #F3F7F9",
"Y. c #F4F7FA",
"T. c #F7F8F8",
"R. c #F4F8FA",
"E. c #F5F8FA",
"W. c #F6F8FA",
"Q. c #F8F8F8",
"!. c #F9F9F9",
"~. c #F8FBFC",
"^. c #F9FBFC",
"/. c #F8FBFD",
"(. c #F9FBFD",
"). c #FAFBFC",
"_. c #FAFCFD",
"`. c #FBFCFD",
"'. c #FCFDFD",
"]. c #FCFDFE",
"[. c #FDFEFE",
"{. c #FEFEFE",
"}. c #FEFFFF",
"|. c white",
/* pixels */
"                                                                ",
"                          $ X X $                               ",
"                    $ $ 3 t h l q 4 * $                         ",
"                  $ 0 L _ c.Q.L.j.Q C y $ =                     ",
"              * ; M 7.|.].F.n.v.F.I.i.~ n > =                   ",
"              ; F L.~.s.>.>.5.2...2.y.5...G 1 %                 ",
"            $ M L.R.5.2.B.R.].A.=...#.>.*...N =                 ",
"          $ q } !.5.r.R.].A.s.q...#...#...>./ s $               ",
"          * L |.p.<.Y.R.r.#...........=...*.>.K ;               ",
"          3 ` /.<.B.`.r.......#.*.>.........=.~ 9 $             ",
"        . i c.A...p.l.+...#...#.....*...=...%.[ g .             ",
"        . l !.l.<.m.5...#...#.....=.....>.....*.v $             ",
"        . l !.s.2.H.r.....#...#.....*...>.....>.v .             ",
"        . a J.B...%.#...#...#...>...=.....+.*...x $             ",
"          8 g.R.>.#...#...#...#...*.....*...%.' s $             ",
"          ; W |.r...#...#...#.........>.....>.E 6               ",
"          . A |.I.<...+.=.......=.>.......#.>.G $               ",
"          . t h.|.Z.>.+.....*.........>.q.#.[ f $               ",
"            = T |.|.F.0...*.........5.Z.y.=.R 1                 ",
"            . p k.|.|./.F.s.r.q.s.Z./.H.%.[ g $                 ",
"              = L |.|.|.|.|.|.|.|.|.|.r...Y 1                   ",
"              $ 7 _ |.|.|.|.|.|.|.|.B.%.~ u $                   ",
"                . d z.|.|.|.|.|.|.Y.2.[ c %                     ",
"                  $ V K.|.|.|.|./.u...Z ;                       ",
"                    ; S L.|.|.].s...K 1 *                       ",
"                    $ ; S L.|.s...K 4 *                         ",
"                      * = M { ( N 1 *                           ",
"                          * q s ; $                             ",
"                            $ $                                 ",
"                                                                ",
"                                                                ",
"                                                                "
};
